<svg width="76" height="76" viewBox="0 0 76 76" fill="none" xmlns="http://www.w3.org/2000/svg">
<rect width="76" height="76" fill="white"/>
<circle cx="38" cy="38" r="38" fill="#222B33"/>
<path d="M30.6084 27.5459C32.2097 26.7098 34.4157 26.9952 36.6403 26.801C36.0271 25.9243 34.7738 25.7943 33.7468 25.3956C32.708 24.9936 31.6404 24.5646 30.6894 24.1558C28.6963 21.2961 26.6169 18.6762 21.764 19.0326C17.5716 19.3417 14.2203 22.2437 12.7575 25.149C11.2762 28.0932 10.5617 33.1302 11.5177 37.4611C13.7795 47.7024 26.3226 54.8153 31.7654 56.3035C35.0125 57.1913 36.1363 56.9725 38.7916 57C41.4469 57.0275 50.8005 53.507 56.888 47.0487C62.9755 40.5903 65.1935 35.1284 65.3996 25.9767C64.6783 26.176 64.175 26.9885 63.6648 27.6287C63.1125 28.3212 62.621 29.0577 62.0112 29.6117C60.268 31.2958 58.5957 33.468 56.3914 34.8176C55.312 35.4781 54.1415 36.1385 53.003 36.8007C51.9219 37.4307 50.7074 38.4864 49.2835 38.2061C49.7632 37.0541 50.5588 36.0119 51.2666 34.9832C51.9996 33.919 52.6449 32.8143 53.1668 31.5964C54.1989 29.1877 55.3644 26.6895 55.6465 23.7453C55.0249 23.671 54.7175 24.3585 54.4067 24.7368C51.8223 27.8753 48.9963 30.2536 45.3174 32.5052C43.4627 33.6386 41.2685 34.8582 38.7061 35.5625C34.8988 36.6081 30.5915 36.2585 29.0375 33.6606C27.7149 31.4478 28.774 28.5019 30.6084 27.5459Z" fill="#D1C1A8"/>
<circle cx="24.1459" cy="26.5207" r="1.97917" fill="#222B33"/>
</svg>
