<svg xmlns="http://www.w3.org/2000/svg" fill="none" viewBox="0 0 100 25"><path fill="#D1C1A8" d="M12.3 5.4c1-.5 2.4-.4 3.8-.5-.3-.5-1.1-.6-1.8-.9l-2-.7C11.2 1.5 9.9-.2 6.8 0 4.1.2 2 2 1.1 4c-1 1.8-1.4 5-.8 7.8C1.7 18 9.6 22.7 13 23.6c2 .5 2.7.4 4.4.4 1.7 0 7.6-2.2 11.4-6.3 3.9-4 5.3-7.5 5.4-13.3-.5.1-.8.6-1 1-.4.5-.7 1-1.1 1.3-1.1 1-2.2 2.4-3.6 3.3l-2.1 1.2c-.7.4-1.5 1.1-2.4 1 .3-.8.8-1.5 1.3-2.1L26.6 8c.6-1.6 1.4-3.1 1.5-5-.3 0-.5.4-.7.6a21.9 21.9 0 01-10 6.9c-2.4.6-5 .4-6-1.2-.9-1.4-.2-3.3 1-3.9zM45 20V2.7h3.7v6.6h4V2.7h3.6V20h-3.6v-7.3h-4V20H45zM65 20.2c-.8 0-1.6 0-2.3-.3-.7-.3-1.3-.6-1.8-1.1-.5-.5-1-1-1.2-1.7-.2-.7-.4-1.4-.4-2.2V2.7H63v12.1c0 .8.2 1.3.6 1.7.4.4.9.6 1.6.6.7 0 1.2-.2 1.6-.6.4-.4.6-1 .6-1.7v-12h3.6v12a6 6 0 01-.5 2.3c-.2.7-.6 1.2-1.1 1.7-.5.5-1.1.8-1.8 1-.7.3-1.5.4-2.4.4zM73.4 15.3H77c0 1.2 1 1.8 2.6 1.8.8 0 1.4-.1 1.8-.5.4-.3.6-.8.6-1.4 0-.5-.2-1-.5-1.3-.3-.4-.8-.6-1.3-.7l-1.9-.4c-1.5-.4-2.7-1-3.5-2a5 5 0 01-1.2-3.4c0-.7 0-1.4.4-2 .2-.6.6-1.1 1.2-1.6.5-.4 1-.7 1.8-1a8 8 0 012.5-.3c1.7 0 3 .4 4 1.2 1.1.9 1.7 2 1.8 3.6h-3.6c0-.6-.3-1-.7-1.3-.4-.3-1-.4-1.6-.4-.7 0-1.3.1-1.7.5-.4.3-.5.7-.5 1.3 0 .4.1.8.4 1.1.3.3.8.6 1.3.7l2 .4c1.5.4 2.7 1 3.5 2a5 5 0 011.2 3.5 4.7 4.7 0 01-1.7 3.7c-.5.4-1.1.8-1.9 1a8.4 8.4 0 01-5 0 6 6 0 01-1.9-.9c-.5-.4-1-1-1.2-1.5-.3-.6-.5-1.3-.5-2zM88.2 20V2.7h3.6v6.6H96V2.7h3.6V20H96v-7.3h-4V20h-3.7z"/></svg>