<svg xmlns="http://www.w3.org/2000/svg" fill="none" viewBox="0 0 35 25"><path fill="#D1C1A8" d="M12.3 5.4c1-.5 2.4-.4 3.8-.5-.3-.5-1.1-.6-1.8-.9l-2-.7C11.2 1.5 9.9-.2 6.8 0 4.1.2 2 2 1.1 4c-1 1.8-1.4 5-.8 7.8C1.7 18 9.6 22.7 13 23.6c2 .5 2.7.4 4.4.4 1.7 0 7.6-2.2 11.4-6.3 3.9-4 5.3-7.5 5.4-13.3-.5.1-.8.6-1 1-.4.5-.7 1-1.1 1.3-1.1 1-2.2 2.4-3.6 3.3l-2.1 1.2c-.7.4-1.5 1.1-2.4 1 .3-.8.8-1.5 1.3-2.1L26.6 8c.6-1.6 1.4-3.1 1.5-5-.3 0-.5.4-.7.6a21.9 21.9 0 01-10 6.9c-2.4.6-5 .4-6-1.2-.9-1.4-.2-3.3 1-3.9z"/></svg>