<svg width="9" height="8" viewBox="0 0 9 8" fill="none" xmlns="http://www.w3.org/2000/svg">
<path d="M9 0.503923C8.60825 0.767433 8.1745 0.968976 7.71545 1.10079C7.46908 0.830644 7.14164 0.639171 6.77742 0.552268C6.41321 0.465365 6.02979 0.487224 5.67903 0.614891C5.32827 0.742557 5.02709 0.96987 4.81622 1.26609C4.60535 1.5623 4.49497 1.91313 4.5 2.27112V2.66123C3.78108 2.679 3.0687 2.52696 2.42632 2.21863C1.78394 1.9103 1.23149 1.45526 0.818182 0.894032C0.818182 0.894032 -0.818182 4.40502 2.86364 5.96546C2.02112 6.51082 1.01747 6.78427 0 6.74567C3.68182 8.69622 8.18182 6.74567 8.18182 2.25942C8.18144 2.15075 8.17049 2.04236 8.14909 1.93562C8.56661 1.54298 8.86125 1.04723 9 0.503923Z" fill="#D1C1A8"/>
</svg>
